<svg id="Layer_1" data-name="Layer 1" xmlns="http://www.w3.org/2000/svg" viewBox="0 0 1068.76 297.22"><title>وصاف افقي</title><path d="M208.31,79.43s-1.63,172.75-1.63,192.76c0,37.34,8.83,46.67,44.14,46.67h63.69c41.13,0,51.14-8.44,71-29,19.84,20.58,29.85,29,71,29h63.69c35.31,0,44.14-9.33,44.14-46.67,0-10.11-.42-59.19-.83-105.29-.32-35.4-39.31-54.58-65.06-32C472.17,158,443.68,183,424.49,199.21a23.46,23.46,0,0,0-1.81,34.18l26.43,27.54,55.25-80.6a7.74,7.74,0,0,1,14.12,4.2c.65,29.72,1.68,76.71,1.68,79,0,6.66-2.53,9.33-8.83,9.33H479.17c-46,0-50.44-2.67-70-22.67q-3.57-3.78-6.76-7.22a23.11,23.11,0,0,0-33.86,0c-2.14,2.3-4.38,4.7-6.76,7.22-19.55,20-24,22.67-70,22.67H259.65c-6.3,0-8.83-2.67-8.83-9.33,0-2.27,1-49.26,1.68-79a7.74,7.74,0,0,1,14.12-4.2l55.25,80.6,21.24-22.14a30.49,30.49,0,0,0-2.22-44.32c-43.13-36.72-121.55-107.08-132.58-115Z" transform="translate(-206.68 -79.43)" fill="#e94548"/><path d="M676.59,316.42q-17.62,0-29.19-7A43.38,43.38,0,0,1,630,289.86q-5.79-12.63-5.79-29.46,0-15.51,4.21-25.9t11.18-15.39a25,25,0,0,1,14.86-5c4.91,0,8.77,1.15,11.57,3.42a16.36,16.36,0,0,1,5.52,7.37,33.55,33.55,0,0,0-7.75,7.49A43.8,43.8,0,0,0,657,245.67a60,60,0,0,0-2.76,19.2q0,9,2.36,14.47a19.76,19.76,0,0,0,6,8.28,22,22,0,0,0,7.89,3.82,34.68,34.68,0,0,0,8.42,1.05H794.42q10.25,0,16.17-6.71t5.92-18.8V219.37q-1.32-2.35-5.39-3.81a33.66,33.66,0,0,0-10.92-1.45q-15.26,0-23.14,9.47T769.17,253q0,18.93,7.76,28.8t22.22,10.65l-5.26,23.67a67.48,67.48,0,0,1-27.35-8.81,52.42,52.42,0,0,1-19.73-20.78Q739.45,273,739.45,253q0-29.72,16.44-46.29t44.31-16.57q20.25,0,33.14,8.29t12.89,20.9V267a49.14,49.14,0,0,1-6.58,25.38A47.16,47.16,0,0,1,821.37,310q-11.7,6.45-27,6.44ZM800.73,173.09A17.32,17.32,0,0,1,788,168a17.14,17.14,0,0,1,0-24.46,17,17,0,0,1,12.49-5.13A17.3,17.3,0,0,1,812.69,168,16.4,16.4,0,0,1,800.73,173.09Z" transform="translate(-206.68 -79.43)" fill="#e94548"/><path d="M939.33,316.42a49.62,49.62,0,0,1-25.64-6.57A48,48,0,0,1,896.06,292a51.16,51.16,0,0,1-6.44-25.77V181.5q0-8.94-2.37-14.07a21.8,21.8,0,0,0-5.52-7.76,51.3,51.3,0,0,0-5.26-3.94,18.24,18.24,0,0,1,2.63-4.87,20,20,0,0,1,6.31-5.52,20.4,20.4,0,0,1,10.52-2.5,21.27,21.27,0,0,1,11.84,3.42,23.62,23.62,0,0,1,8.41,10.26q3.17,6.84,3.16,16.83v92.84a37.86,37.86,0,0,0,2.1,12.23A23.21,23.21,0,0,0,928,288.54a16.47,16.47,0,0,0,11.31,3.95h7.36v23.93Zm7.36,0V292.49a4.12,4.12,0,0,1,4.21,3.15,28.55,28.55,0,0,1,1.05,8.68,29.86,29.86,0,0,1-1.05,8.81A4.14,4.14,0,0,1,946.69,316.42Z" transform="translate(-206.68 -79.43)" fill="#e94548"/><path d="M1038,173.08a15.71,15.71,0,0,1-10.52-3.81,36.53,36.53,0,0,1-7.63-9.07,51,51,0,0,1-4.73-10,40.61,40.61,0,0,1-1.84-6.83,7.51,7.51,0,0,1,1.84-5.66,6.36,6.36,0,0,1,5-2.5,6.28,6.28,0,0,1,4.21,1.58,10.59,10.59,0,0,1,2.9,4.21q1.57,3.94,3,8a31.16,31.16,0,0,0,3.29,6.84,5.32,5.32,0,0,0,4.47,2.76q3.42,0,3.55-3.42a27.39,27.39,0,0,0-.79-7.36,28.94,28.94,0,0,1-.92-5.79,9.2,9.2,0,0,1,1.84-5.26,6.31,6.31,0,0,1,5.52-2.63,5.91,5.91,0,0,1,3.82,1.18,10.09,10.09,0,0,1,2.5,3.29,56.05,56.05,0,0,1,3.68,8.68c1,3.16,2.8,4.73,5.26,4.73a3.34,3.34,0,0,0,3.42-2.76,16.7,16.7,0,0,0,.26-6.7c-.35-2.63-.75-5.13-1.18-7.5a32,32,0,0,1-.66-5.13,6.94,6.94,0,0,1,1.71-5.26,6.34,6.34,0,0,1,5.13-2.36c1.92,0,3.68,1.09,5.26,3.28s2.54,5.75,2.89,10.65a60.16,60.16,0,0,1-.4,10.39,41.24,41.24,0,0,1-2.36,9.87,17.3,17.3,0,0,1-5,7.23,12.43,12.43,0,0,1-8.28,2.76,16.21,16.21,0,0,1-6-1,22.44,22.44,0,0,1-4.21-2.11,21.6,21.6,0,0,1-5.39,6.45A14.18,14.18,0,0,1,1038,173.08Z" transform="translate(-206.68 -79.43)" fill="#e94548"/><path d="M946.69,316.42c-1.93,0-3.29-1.09-4.08-3.29a26.68,26.68,0,0,1-1.18-8.81,25.52,25.52,0,0,1,1.18-8.68q1.18-3.15,4.08-3.15Zm0,0V292.49h138.07a17.52,17.52,0,0,0,15-7.63q5.54-7.62,5.53-25,0-24.19-11.18-35t-31.17-10.79q-15.51,0-26.43,5.53a54.87,54.87,0,0,0-18,14.2,79,79,0,0,0-11.44,18.67,195.67,195.67,0,0,0-7.24,19.2l-14.46-2.1q3.42-13.41,7.49-25.38a123.68,123.68,0,0,1,9.74-21.83,68.86,68.86,0,0,1,13.67-17.1,56.05,56.05,0,0,1,19.33-11.17q11.31-3.94,26.83-3.95,34.18,0,53.52,18.41t19.33,51q0,26.56-13.28,41.69t-37.22,15.12Zm23.14,0V233.84a21,21,0,0,0-3.94-12.76,23.7,23.7,0,0,0-8.16-7.49,22.38,22.38,0,0,1,6.71-7q4.86-3.56,13.28-3.55A21.79,21.79,0,0,1,988,205.3a19.11,19.11,0,0,1,6.84,6,26.11,26.11,0,0,1,3.81,8.68,41.61,41.61,0,0,1,1.18,9.86v86.53Z" transform="translate(-206.68 -79.43)" fill="#e94548"/><path d="M1223.1,316.42a53,53,0,0,1-27.75-7.49,51.3,51.3,0,0,1-19.59-21.7q-7.1-14.21-7.1-34.19,0-29.72,16.44-46.29t44.31-16.57q20.52,0,33.27,8.29t12.76,20.9v97.05h-29.72V219.37c-.7-1.57-2.46-2.84-5.26-3.81a34.91,34.91,0,0,0-11-1.45q-15.26,0-23,9.47T1198.64,253q0,18.93,7.63,29.19t22.09,10.26h47.08v23.93Zm20.25,60.23a18.75,18.75,0,0,1-8.94-2,17.93,17.93,0,0,1-8.42-9.6,48.82,48.82,0,0,0,17.89-29.33,95.13,95.13,0,0,0,1.84-19.33V292.49h29.72v23.93a133.38,133.38,0,0,1-1.71,21.17,84.31,84.31,0,0,1-5.52,19.6,38.62,38.62,0,0,1-9.87,14.2A22.06,22.06,0,0,1,1243.35,376.65Z" transform="translate(-206.68 -79.43)" fill="#e94548"/></svg>