<svg id="Layer_1" data-name="Layer 1" xmlns="http://www.w3.org/2000/svg" viewBox="0 0 797.37 755.78"><title>وصاف عمودي</title><path d="M295.05,90.31s-2,211.53-2,236c0,45.73,10.81,57.16,54.05,57.16h78c50.38,0,62.63-10.34,86.92-35.54,24.3,25.2,36.55,35.54,86.92,35.54h78c43.24,0,54.05-11.43,54.05-57.16,0-12.37-.51-72.47-1-128.92-.39-43.35-48.13-66.83-79.66-39.12-32.14,28.24-67,58.88-90.52,78.69a28.71,28.71,0,0,0-2.22,41.84l32.36,33.73,67.65-98.7a9.48,9.48,0,0,1,17.3,5.15c.8,36.39,2,93.92,2,96.7,0,8.16-3.09,11.43-10.81,11.43H626.72c-56.37,0-61.77-3.27-85.71-27.76-2.92-3.08-5.66-6-8.28-8.84a28.29,28.29,0,0,0-41.46,0c-2.61,2.81-5.36,5.76-8.28,8.84-23.94,24.49-29.34,27.76-85.71,27.76H357.91c-7.72,0-10.81-3.27-10.81-11.43,0-2.78,1.26-60.31,2.06-96.7a9.48,9.48,0,0,1,17.29-5.15l67.65,98.7,26-27.11a37.33,37.33,0,0,0-2.72-54.27c-52.81-45-148.83-131.12-162.34-140.87Z" transform="translate(-112.83 -90.31)" fill="#e84548"/><path d="M176.92,772.35q-21.58,0-35.75-8.54a53,53,0,0,1-21.25-24q-7.1-15.47-7.09-36.07,0-19,5.16-31.72t13.68-18.84a30.68,30.68,0,0,1,18.2-6.12q9,0,14.17,4.19a20.06,20.06,0,0,1,6.76,9,41.45,41.45,0,0,0-9.5,9.17,53.52,53.52,0,0,0-8.37,16.27q-3.39,10-3.38,23.5,0,11,2.89,17.72c1.94,4.51,4.4,7.89,7.41,10.14a26.69,26.69,0,0,0,9.66,4.67A42.27,42.27,0,0,0,179.82,743H321.19q12.57,0,19.81-8.21t7.25-23V653.51c-1.08-1.93-3.28-3.48-6.61-4.67s-7.78-1.77-13.36-1.77q-18.67,0-28.34,11.59t-9.66,36.07q0,23.19,9.5,35.27T327,743l-6.44,29a82.54,82.54,0,0,1-33.49-10.79,64.14,64.14,0,0,1-24.16-25.44q-9-16.57-9-41.06,0-36.39,20.12-56.68t54.27-20.28q24.8,0,40.58,10.14t15.78,25.6V711.8a60.12,60.12,0,0,1-8.06,31.08,57.65,57.65,0,0,1-22.38,21.58q-14.32,7.89-33,7.89Zm152-175.52a21.19,21.19,0,0,1-15.62-6.28,21,21,0,0,1,0-29.95,20.86,20.86,0,0,1,15.3-6.28,21.18,21.18,0,0,1,15,36.23A20.09,20.09,0,0,1,328.92,596.83Z" transform="translate(-112.83 -90.31)" fill="#e84548"/><path d="M498.64,772.35q-17.72,0-31.4-8.06a58.53,58.53,0,0,1-21.58-21.9q-7.89-13.83-7.89-31.55V607.14q0-10.95-2.9-17.23a26.61,26.61,0,0,0-6.76-9.5,61.55,61.55,0,0,0-6.44-4.83,22.23,22.23,0,0,1,3.22-6,24.29,24.29,0,0,1,7.73-6.76q5.14-3.06,12.88-3.06A26.07,26.07,0,0,1,460,564a29,29,0,0,1,10.31,12.56q3.87,8.38,3.86,20.61V710.84a46.14,46.14,0,0,0,2.58,15,28.33,28.33,0,0,0,8.05,12.4q5.47,4.83,13.85,4.83h9v29.31Zm9,0V743a5.06,5.06,0,0,1,5.15,3.86,35.15,35.15,0,0,1,1.29,10.63,36.78,36.78,0,0,1-1.29,10.79Q511.52,772.36,507.66,772.35Z" transform="translate(-112.83 -90.31)" fill="#e84548"/><path d="M619.4,596.83a19.18,19.18,0,0,1-12.88-4.67,44.39,44.39,0,0,1-9.34-11.11,62,62,0,0,1-5.8-12.24,49.35,49.35,0,0,1-2.25-8.37,9.24,9.24,0,0,1,2.25-6.92,7.78,7.78,0,0,1,6.12-3.06,7.67,7.67,0,0,1,5.15,1.93,12.87,12.87,0,0,1,3.54,5.15q1.93,4.83,3.71,9.83a38.2,38.2,0,0,0,4,8.37c1.51,2.25,3.33,3.38,5.48,3.38,2.79,0,4.24-1.39,4.35-4.19a33.92,33.92,0,0,0-1-9,35.24,35.24,0,0,1-1.13-7.09,11.23,11.23,0,0,1,2.26-6.44,7.72,7.72,0,0,1,6.76-3.22,7.13,7.13,0,0,1,4.67,1.45,12.09,12.09,0,0,1,3.06,4,70.32,70.32,0,0,1,4.51,10.63q1.94,5.81,6.44,5.8c2.14,0,3.54-1.13,4.18-3.38a20.42,20.42,0,0,0,.33-8.22c-.44-3.22-.92-6.27-1.45-9.17a39.17,39.17,0,0,1-.81-6.28,8.51,8.51,0,0,1,2.1-6.44,7.76,7.76,0,0,1,6.28-2.9q3.53,0,6.44,4t3.54,13a74.35,74.35,0,0,1-.48,12.72,51.41,51.41,0,0,1-2.9,12.07,21.23,21.23,0,0,1-6.12,8.86,15.28,15.28,0,0,1-10.15,3.38,19.75,19.75,0,0,1-7.4-1.29,28,28,0,0,1-5.16-2.57,26.61,26.61,0,0,1-6.6,7.89A17.37,17.37,0,0,1,619.4,596.83Z" transform="translate(-112.83 -90.31)" fill="#e84548"/><path d="M507.65,772.35q-3.54,0-5-4a32.58,32.58,0,0,1-1.45-10.79,31.15,31.15,0,0,1,1.45-10.63q1.45-3.85,5-3.86Zm0,0V743H676.72a21.48,21.48,0,0,0,18.36-9.34q6.76-9.33,6.76-30.59,0-29.62-13.68-42.83T650,647.07q-19,0-32.36,6.76a67.4,67.4,0,0,0-22.06,17.39,96.91,96.91,0,0,0-14,22.87,240.41,240.41,0,0,0-8.86,23.51L555,715q4.18-16.42,9.18-31.07a153.39,153.39,0,0,1,11.91-26.74,84.75,84.75,0,0,1,16.75-20.93A68.68,68.68,0,0,1,616.5,622.6q13.85-4.83,32.85-4.83,41.86,0,65.53,22.54t23.67,62.48q0,32.52-16.26,51t-45.57,18.52Zm28.34,0V671.22a25.73,25.73,0,0,0-4.83-15.61q-4.83-6.6-10-9.18,2.25-4.18,8.21-8.54t16.26-4.35a26.52,26.52,0,0,1,12.56,2.74,23.31,23.31,0,0,1,8.37,7.41,31.56,31.56,0,0,1,4.67,10.63,50.71,50.71,0,0,1,1.45,12.07v106Z" transform="translate(-112.83 -90.31)" fill="#e84548"/><path d="M846.12,772.35a64.77,64.77,0,0,1-34-9.18q-15.3-9.18-24-26.57t-8.7-41.87q0-36.39,20.13-56.68t54.27-20.28q25.11,0,40.73,10.14t15.62,25.6V772.35H873.81V653.51c-.86-1.93-3-3.48-6.44-4.67a42.58,42.58,0,0,0-13.52-1.77q-18.69,0-28.18,11.59t-9.5,36.07q0,23.19,9.34,35.75t27,12.56H910.2v29.31Zm24.79,73.74A23,23,0,0,1,860,843.68a20.56,20.56,0,0,1-7.08-6,20.29,20.29,0,0,1-3.22-5.8,59.76,59.76,0,0,0,21.9-35.9,116.18,116.18,0,0,0,2.25-23.67V743H910.2v29.31a164.08,164.08,0,0,1-2.09,25.92,102.67,102.67,0,0,1-6.76,24q-4.68,10.95-12.08,17.39T870.91,846.09Z" transform="translate(-112.83 -90.31)" fill="#e84548"/></svg>